<svg xmlns="http://www.w3.org/2000/svg" viewBox="0 0 64 64" aria-labelledby="title" role="img">
  <title>LEGALYTH IA</title>
  <defs>
    <linearGradient id="g" x1="0" y1="0" x2="1" y2="0">
      <stop offset="0" stop-color="#2CA8A8"/>
      <stop offset="1" stop-color="#1E8096"/>
    </linearGradient>
  </defs>
  <!-- Contorno tipo cerebro -->
  <g fill="none" stroke="url(#g)" stroke-width="4" stroke-linecap="round" stroke-linejoin="round">
    <path d="M20 12c-5 0-9 4-9 9 0 .4.03.9.07 1.3C8.4 24 6.5 27.7 6.5 31.8c0 6.3 5.2 11.5 11.5 11.5h2.2"/>
    <path d="M44 12c5 0 9 4 9 9 0 .4-.03.9-.07 1.3 2.67 1.7 4.57 5.4 4.57 9.5 0 6.3-5.2 11.5-11.5 11.5h-2.2"/>
  </g>
  <!-- Balanza -->
  <g fill="#0B4254">
    <rect x="30" y="22" width="4" height="20" rx="2"/>
    <rect x="22" y="22" width="20" height="4" rx="2"/>
    <rect x="24" y="26" width="2" height="10" rx="1"/>
    <rect x="38" y="26" width="2" height="10" rx="1"/>
    <path d="M18 36c0 4 4 7 9 7s9-3 9-7H18z" fill="#1FA3A3"/>
    <path d="M32 36h14c0 4-4 7-9 7s-9-3-5-7z" fill="#1FA3A3"/>
  </g>
</svg>